<?xml version="1.0" encoding="UTF-8" standalone="no"?>
<!-- Created with Inkscape (http://www.inkscape.org/) -->

<svg
   xmlns:dc="http://purl.org/dc/elements/1.1/"
   xmlns:cc="http://creativecommons.org/ns#"
   xmlns:rdf="http://www.w3.org/1999/02/22-rdf-syntax-ns#"
   xmlns:svg="http://www.w3.org/2000/svg"
   xmlns="http://www.w3.org/2000/svg"
   xmlns:sodipodi="http://sodipodi.sourceforge.net/DTD/sodipodi-0.dtd"
   xmlns:inkscape="http://www.inkscape.org/namespaces/inkscape"
   width="58.076256mm"
   height="66.268311mm"
   viewBox="0 0 58.076256 66.268311"
   version="1.1"
   id="svg124"
   inkscape:version="0.92.5 (2060ec1f9f, 2020-04-08)"
   sodipodi:docname="coin.svg">
  <defs
     id="defs118" />
  <sodipodi:namedview
     id="base"
     pagecolor="#ffffff"
     bordercolor="#666666"
     borderopacity="1.0"
     inkscape:pageopacity="0.0"
     inkscape:pageshadow="2"
     inkscape:zoom="1.979899"
     inkscape:cx="193.14483"
     inkscape:cy="172.77072"
     inkscape:document-units="mm"
     inkscape:current-layer="layer1"
     showgrid="false"
     fit-margin-top="0"
     fit-margin-left="0"
     fit-margin-right="0"
     fit-margin-bottom="0"
     inkscape:window-width="1920"
     inkscape:window-height="1013"
     inkscape:window-x="0"
     inkscape:window-y="0"
     inkscape:window-maximized="1" />
  <metadata
     id="metadata121">
    <rdf:RDF>
      <cc:Work
         rdf:about="">
        <dc:format>image/svg+xml</dc:format>
        <dc:type
           rdf:resource="http://purl.org/dc/dcmitype/StillImage" />
        <dc:title></dc:title>
      </cc:Work>
    </rdf:RDF>
  </metadata>
  <g
     inkscape:label="Layer 1"
     inkscape:groupmode="layer"
     id="layer1"
     transform="translate(-9.5154436,-83.193226)">
    <g
       transform="matrix(0.26458333,0,0,0.26458333,-3.4176502,73.69715)"
       id="g99">
      <g
         id="use7391-7-7-1-8-9-0"
         transform="matrix(-1.3628972,0,0,1,1628.1379,-569.62386)">
        <path
           inkscape:connector-curvature="0"
           id="path7395-7-0-8-9-1-0"
           style="color:#000000;fill:#d5b04f"
           d="m 1074.2806,606.02876 c -42.3033,0 -76.58532,55.94287 -76.58532,124.96413 0,69.02621 34.28502,124.9827 76.58532,124.9827 2.0472,0 4.0759,-0.12971 6.0827,-0.38695 -39.4575,-5.05832 -70.5143,-58.91591 -70.5143,-124.59885 0,-65.68294 31.0575,-119.52202 70.5143,-124.58027 -2.0067,-0.25726 -4.0357,-0.38696 -6.0827,-0.38696 z" />
        <path
           style="fill:#c89c31;fill-rule:evenodd"
           inkscape:connector-curvature="0"
           id="path7397-4-6-5-8-9-1"
           d="m 1063.239,607.32273 c -4.8928,1.1533 -9.6339,3.06175 -14.1814,5.64951 3.2426,0.3127 7.1095,0.5001 11.2764,0.52239 4.1905,-2.47954 8.5483,-4.38855 13.0431,-5.64952 -2.9411,-0.28764 -6.4007,-0.47132 -10.1381,-0.52238 z m -14.1101,14.31726 c -4.6925,0 -9.0211,0.21786 -12.5688,0.58042 -1.5117,1.39861 -2.9893,2.87274 -4.4348,4.43058 2.808,0.50846 6.7076,0.8856 11.1933,1.06416 1.9477,-2.16929 3.9526,-4.2007 6.0236,-6.07516 -0.072,-10e-5 -0.1415,0 -0.2134,0 z m -13.399,14.35626 c -4.436,0.0644 -8.4682,0.32738 -11.7033,0.71583 -0.9851,1.39935 -1.9534,2.83596 -2.8932,4.31456 2.8971,0.50914 6.9129,0.87897 11.5015,1.04477 1.306,-2.10403 2.6596,-4.12758 4.0554,-6.07516 -0.3193,0.002 -0.6451,-0.004 -0.9605,0 z m -9.2248,14.31726 c -4.1344,0.06 -7.9226,0.29069 -11.0393,0.63844 -0.7723,1.50949 -1.5123,3.05544 -2.2411,4.62412 3.1076,0.45464 7.1828,0.77588 11.7508,0.88999 0.9571,-2.09784 1.9421,-4.15891 2.9762,-6.15255 -0.4844,-0.002 -0.9715,-0.007 -1.4466,0 z m -4.9684,14.31726 c -4.6329,0.0144 -8.8985,0.2322 -12.379,0.59977 -0.5974,1.57177 -1.176,3.16169 -1.7312,4.7789 3.2258,0.42057 7.3265,0.71206 11.8809,0.79323 0.7077,-2.09704 1.4511,-4.15049 2.2292,-6.17194 z m -7.0787,14.33645 c -3.5793,0 -6.9494,0.12845 -9.9245,0.34826 -0.4948,1.77527 -0.9545,3.57946 -1.3992,5.39802 3.2986,0.29024 7.1672,0.445 11.3239,0.445 0.2398,0 0.4734,10e-4 0.7114,0 0.5042,-2.08596 1.0426,-4.14257 1.6126,-6.17193 -0.7633,-0.0116 -1.5392,-0.0193 -2.324,-0.0193 z m -5.5849,14.33645 c -2.7057,0 -5.2825,0.0832 -7.6718,0.21282 -0.3615,1.87936 -0.6882,3.79109 -0.996,5.70759 2.6571,0.16612 5.5837,0.27087 8.6678,0.27087 1.173,0 2.3161,-0.013 3.4386,-0.0387 0.3274,-2.05456 0.6901,-4.08251 1.079,-6.09454 -1.4585,-0.0443 -2.9669,-0.058 -4.5175,-0.058 z m -6.6876,14.33645 c -1.0841,0.0157 -2.123,0.0587 -3.15404,0.0967 -0.22842,1.98015 -0.42238,3.96648 -0.59286,5.97839 1.8942,0.0774 3.8847,0.11609 5.9526,0.11609 2.1532,0 4.2254,-0.0518 6.1893,-0.13544 0.1682,-1.98194 0.3684,-3.94995 0.5929,-5.901 -2.1369,-0.10075 -4.4106,-0.15478 -6.7824,-0.15478 -0.7476,0 -1.4773,-0.0106 -2.2055,0 z m 2.2055,14.31726 c -2.2651,0 -4.44548,0.0432 -6.49784,0.13543 -0.0844,1.95768 -0.13747,3.9195 -0.16601,5.901 2.10151,0.0972 4.33615,0.15479 6.66365,0.15479 1.9011,0 3.7324,-0.031 5.4901,-0.0967 0.029,-2.01457 0.08,-4.00784 0.166,-5.99777 -1.8071,-0.0698 -3.6951,-0.0967 -5.6559,-0.0967 z m 0,14.33645 c -2.3097,0 -4.52895,0.0591 -6.61661,0.15478 0.0522,1.97972 0.1292,3.94624 0.23715,5.901 2.01796,0.0888 4.15786,0.13544 6.37906,0.13544 2.008,0 3.9405,-0.043 5.7864,-0.11609 -0.1094,-1.97847 -0.1967,-3.97447 -0.249,-5.97839 -1.7717,-0.0669 -3.6192,-0.0967 -5.5375,-0.0967 z m 0,14.33645 c -1.9908,0 -3.9078,0.0442 -5.73897,0.11609 0.19605,2.01488 0.42155,4.01614 0.67589,5.99777 1.62758,0.0558 3.31578,0.0774 5.06318,0.0774 2.4876,0 4.8648,-0.0638 7.0909,-0.17413 -0.2486,-1.94455 -0.4833,-3.90513 -0.6758,-5.88168 -2.0289,-0.0898 -4.1807,-0.13544 -6.4148,-0.13544 z m -2.2055,14.33645 c -0.5543,0.008 -1.0714,0.0247 -1.6126,0.0387 0.3568,2.0628 0.7429,4.11514 1.162,6.13317 0.8717,0.0153 1.7557,0.0193 2.6561,0.0193 3.3923,0 6.59,-0.11078 9.4502,-0.30956 -0.3837,-1.86134 -0.7483,-3.73079 -1.079,-5.6302 -2.5773,-0.15451 -5.4032,-0.25152 -8.3711,-0.25152 -0.7476,0 -1.4773,-0.0106 -2.2055,0 z m 8.3594,14.31726 c -2.4075,0 -4.7138,0.0511 -6.8773,0.15478 0.5164,2.00188 1.0589,3.99255 1.6364,5.93976 1.6818,0.0599 3.4295,0.0967 5.2407,0.0967 2.4164,0 4.7297,-0.0504 6.9012,-0.15478 -0.5779,-1.95049 -1.1197,-3.93435 -1.6364,-5.93976 -1.6895,-0.0604 -3.4447,-0.0967 -5.2646,-0.0967 z m 2.241,14.33645 c -1.6405,0 -3.23,0.028 -4.7664,0.0774 0.7366,2.06862 1.518,4.10338 2.324,6.09454 0.8022,0.0129 1.6166,0.0193 2.4426,0.0193 3.4485,0 6.6982,-0.1239 9.5925,-0.32891 -0.7475,-1.8583 -1.4707,-3.74335 -2.158,-5.66883 -2.3225,-0.12158 -4.8181,-0.19347 -7.4347,-0.19347 z m 10.0668,14.33646 c -3.1306,0 -6.0975,0.1 -8.7862,0.27086 0.9579,1.98615 1.9596,3.91789 2.9881,5.8043 1.8494,0.0734 3.7861,0.11608 5.7981,0.11608 2.2087,0 4.3358,-0.0476 6.3438,-0.13543 -1.0649,-1.95408 -2.0937,-3.95621 -3.0829,-6.01715 -1.0661,-0.0231 -2.1496,-0.0387 -3.2607,-0.0387 z m 5.5849,14.31725 c -2.2172,0 -4.3528,0.0469 -6.3673,0.13544 1.3768,2.09524 2.8001,4.10962 4.2687,6.03646 0.6903,0.009 1.3911,0.0193 2.0988,0.0193 3.5371,0 6.867,-0.11392 9.8179,-0.32891 -1.3914,-1.84029 -2.7471,-3.75406 -4.0555,-5.74622 -1.8388,-0.0725 -3.7632,-0.11609 -5.7628,-0.11609 z m 13.9917,14.33646 c -3.1492,0 -6.1324,0.098 -8.8336,0.27086 2.074,2.12688 4.2132,4.09997 6.4147,5.901 0.7945,0.0126 1.6011,0.0193 2.4189,0.0193 3.369,0 6.5468,-0.11334 9.3911,-0.30956 -2.1567,-1.78754 -4.2634,-3.74181 -6.2964,-5.84299 -1.0132,-0.0208 -2.0415,-0.0387 -3.0948,-0.0387 z m 18.7229,14.33645 c -2.8169,0 -5.4992,0.0923 -7.9681,0.23217 6.7023,3.12763 13.7879,4.79822 21.1061,4.79822 1.7153,0 3.4113,-0.09 5.0988,-0.27087 0.2358,-0.0526 0.4621,-0.10024 0.6759,-0.15478 -5.1824,-0.69844 -10.2205,-2.24835 -15.0591,-4.54667 -1.2531,-0.0322 -2.536,-0.0582 -3.8535,-0.0582 z" />
      </g>
      <path
         inkscape:connector-curvature="0"
         id="path9060-8-0-1-1-3-5-1"
         style="color:#000000;fill:#eed175"
         d="m 48.880985,160.86947 c 0,69.02333 46.0808,124.97879 102.923495,124.97879 56.8426,0 102.92351,-55.95546 102.92351,-124.97879 -1e-5,-69.023325 -46.08091,-124.978789 -102.92351,-124.978789 -56.842695,0 -102.923495,55.955464 -102.923495,124.978789 z" />
      <path
         inkscape:connector-curvature="0"
         id="path9062-1-4-89-6-9-9-6"
         style="color:#000000;fill:#c89c31"
         d="m 51.480585,161.78874 c 0,67.25927 44.9032,121.78465 100.293005,121.78465 55.3899,0 100.29309,-54.52538 100.29309,-121.78465 0,-67.259255 -44.9032,-121.784639 -100.29309,-121.784639 -55.389805,0 -100.293005,54.525384 -100.293005,121.784639 z" />
      <path
         inkscape:connector-curvature="0"
         id="path9064-0-4-2-0-4-9-0"
         style="color:#000000;fill:#ebc859"
         d="m 54.713685,162.07032 c 0,65.11062 43.4687,117.89415 97.089105,117.89415 53.62039,0 97.0892,-52.78353 97.0892,-117.89415 0,-65.110615 -43.4688,-117.894135 -97.0892,-117.894135 -53.620405,0 -97.089105,52.78352 -97.089105,117.894135 z" />
      <path
         inkscape:connector-curvature="0"
         id="path9066-4-1-2-7-4-3-8"
         style="color:#000000;fill:#d2aa48"
         d="m 222.36118,80.057715 c 36.8261,47.326515 36.1362,121.688955 -2.8386,166.408325 -10.5262,12.07727 -21.8723,22.23587 -35.7891,26.75548 8.5479,-5.37698 15.81461,-12.76388 23.16221,-21.1945 42.28069,-48.5109 44.24419,-129.35371 4.39479,-180.561525 -3.8467,-4.94358 -8.15069,-8.53835 -12.44989,-12.56699 8.44239,5.71427 16.5304,12.17633 23.52069,21.15921 z" />
      <path
         inkscape:connector-curvature="0"
         id="path9068-5-5-3-3-2-6-9"
         style="color:#000000;fill:#f7e587"
         d="m 92.906085,256.14296 c -42.6922,-39.39552 -51.0122,-113.35554 -18.5684,-165.194845 8.7621,-14.00089 19.6156,-24.94144 31.610705,-32.69907 -7.710705,6.99858 -14.775905,15.39268 -20.892805,25.16618 -35.1955,56.238185 -26.2698,136.386975 19.927205,179.013705 4.4594,4.1152 9.1026,7.72235 13.8851,10.84459 -9.097,-3.96493 -17.85851,-9.65091 -25.962405,-17.12932 z" />
    </g>
  </g>
</svg>
