<?xml version="1.0" standalone="no"?>
<!DOCTYPE svg PUBLIC "-//W3C//DTD SVG 20010904//EN"
 "http://www.w3.org/TR/2001/REC-SVG-20010904/DTD/svg10.dtd">
<svg version="1.0" xmlns="http://www.w3.org/2000/svg"
 width="1280.000000pt" height="1279.000000pt" viewBox="0 0 1280.000000 1279.000000"
 preserveAspectRatio="xMidYMid meet">
<metadata>
Created by potrace 1.15, written by Peter Selinger 2001-2017
</metadata>
<g transform="translate(0.000000,1279.000000) scale(0.100000,-0.100000)"
fill="#000000" stroke="none">
<path d="M5910 12440 c-256 -20 -405 -82 -460 -190 -39 -76 -43 -122 -29 -330
9 -151 9 -211 0 -265 -40 -238 -237 -396 -619 -497 -151 -39 -341 -50 -442
-24 -161 41 -247 129 -400 410 -67 122 -119 182 -185 212 -60 28 -141 31 -230
9 -151 -38 -487 -237 -613 -364 -148 -149 -168 -271 -70 -437 22 -38 41 -74
42 -79 1 -6 23 -47 48 -90 72 -122 107 -209 129 -311 19 -88 19 -96 4 -155
-35 -133 -117 -261 -269 -418 -217 -222 -361 -298 -550 -289 -116 6 -167 26
-347 135 -168 102 -222 124 -301 124 -156 1 -304 -151 -473 -486 -94 -186
-119 -265 -120 -380 0 -81 3 -95 30 -145 49 -92 63 -107 173 -193 59 -46 180
-156 268 -244 156 -156 163 -164 198 -248 43 -103 45 -146 16 -300 -59 -304
-180 -519 -339 -604 -93 -49 -168 -61 -397 -61 -250 0 -286 -9 -359 -84 -41
-41 -56 -66 -77 -131 -66 -199 -60 -577 13 -812 45 -147 93 -204 239 -278 36
-18 92 -57 125 -85 92 -80 184 -116 380 -150 186 -32 268 -61 355 -125 43 -32
77 -50 79 -44 11 33 74 -195 92 -333 15 -123 -1 -239 -46 -334 -56 -115 -128
-175 -399 -325 -97 -54 -160 -109 -188 -163 -29 -57 -35 -154 -14 -236 20 -77
95 -237 166 -355 28 -47 49 -89 46 -93 -5 -9 58 -123 94 -170 75 -97 198 -197
351 -286 130 -75 287 -75 473 -1 201 80 337 106 476 93 151 -15 324 -96 443
-207 28 -26 36 -30 31 -16 -4 11 -12 26 -17 33 -5 7 -7 15 -4 18 8 8 63 -113
77 -169 18 -68 8 -209 -19 -279 -12 -31 -61 -121 -108 -200 -47 -78 -94 -167
-104 -195 -54 -151 9 -281 207 -424 85 -62 98 -74 67 -62 -29 11 46 -84 121
-153 306 -284 577 -362 795 -229 62 37 128 103 234 232 159 192 286 273 488
308 140 25 282 15 439 -31 76 -22 209 -87 243 -118 l29 -27 -6 33 c-6 31 -6
32 6 8 7 -16 14 -115 17 -270 6 -244 6 -245 35 -303 36 -75 94 -118 208 -154
48 -15 81 -30 73 -33 -41 -14 120 -167 233 -221 92 -44 204 -63 339 -56 172 9
282 54 371 152 79 86 108 164 151 406 11 57 21 113 24 124 10 43 69 185 78
191 6 3 13 14 17 24 25 66 186 206 308 268 290 148 569 159 786 31 57 -34 59
-34 52 -11 -3 9 5 -1 18 -22 48 -81 116 -162 159 -188 24 -15 69 -32 99 -37
54 -9 54 -9 13 -10 l-42 -1 52 -48 c74 -69 109 -91 185 -118 234 -82 590 75
717 316 48 92 54 142 44 340 -10 192 -13 204 -86 368 -49 112 -55 130 -54 190
1 84 5 105 37 193 100 277 361 526 611 583 145 33 268 20 488 -50 207 -66 323
-69 448 -9 135 63 273 242 336 434 25 77 28 193 6 266 -9 28 -20 109 -26 180
-9 130 -30 227 -53 255 -71 85 -133 133 -233 184 -59 30 -104 55 -99 55 4 1
-19 21 -51 45 -126 92 -156 184 -127 381 31 208 115 389 238 510 108 107 216
157 461 215 231 54 341 125 408 263 51 102 71 215 64 347 -4 58 -13 130 -22
160 -9 30 -18 65 -21 77 -2 12 -9 35 -15 50 -15 38 -36 119 -55 211 -22 106
-40 157 -86 234 -51 88 -98 133 -167 159 -52 20 -65 21 -201 13 -232 -14 -348
-11 -394 11 -106 51 -194 145 -255 270 -56 116 -65 160 -57 268 16 230 81 341
342 587 132 125 187 216 199 335 6 52 3 86 -16 165 -13 55 -26 95 -30 89 -3
-6 -9 18 -13 53 -15 135 -89 299 -229 510 -93 141 -199 253 -277 294 -46 24
-67 29 -130 29 -87 0 -137 -22 -280 -122 -202 -140 -280 -173 -414 -173 -55 0
-105 7 -147 20 -126 39 -285 147 -427 292 l-62 64 3 124 c3 116 7 137 54 295
58 192 69 263 54 353 -10 63 -56 172 -72 172 -4 0 -13 -8 -18 -17 -18 -31 -12
-4 8 35 66 130 38 258 -82 376 -110 107 -387 268 -573 332 -107 38 -247 41
-310 7 -69 -37 -120 -106 -204 -278 -93 -191 -149 -269 -231 -324 -151 -101
-352 -115 -634 -45 -196 48 -383 139 -455 219 l-25 28 40 -29 c22 -16 35 -22
29 -14 -7 8 -20 51 -29 95 -22 101 -57 199 -93 260 -15 25 -32 56 -39 67 -11
20 -12 19 -16 -13 -2 -19 -5 43 -5 137 -2 200 -13 250 -71 316 -47 53 -129 93
-233 113 -97 18 -307 25 -438 15z m825 -2125 c83 -8 166 -18 185 -21 273 -42
430 -78 665 -154 440 -142 842 -358 1184 -635 216 -175 544 -530 676 -732 15
-24 30 -43 32 -43 3 0 -1 10 -9 23 -32 51 -59 101 -43 82 31 -37 122 -200 198
-350 196 -392 312 -784 373 -1260 23 -173 26 -660 6 -830 -78 -675 -302 -1274
-675 -1805 -584 -832 -1458 -1395 -2452 -1579 -264 -49 -345 -55 -695 -55
-351 0 -448 7 -705 55 -1021 189 -1927 791 -2505 1664 -129 193 -276 466 -266
492 3 8 2 12 -3 9 -8 -5 -96 182 -89 189 2 3 17 -25 32 -61 33 -76 44 -81 16
-7 -25 68 -83 300 -109 438 -91 487 -89 974 5 1460 108 557 377 1154 712 1580
4 6 27 36 51 68 105 143 292 341 460 490 64 56 118 105 121 108 16 18 231 177
320 236 286 190 602 345 927 452 299 99 535 148 918 190 135 14 507 12 670 -4z
m2500 -65 c10 -11 16 -20 13 -20 -3 0 -13 9 -23 20 -10 11 -16 20 -13 20 3 0
13 -9 23 -20z m-6625 -4865 c0 -5 -5 -3 -10 5 -5 8 -10 20 -10 25 0 6 5 3 10
-5 5 -8 10 -19 10 -25z"/>
<path d="M2680 5221 c0 -6 4 -13 10 -16 6 -3 7 1 4 9 -7 18 -14 21 -14 7z"/>
</g>
</svg>
